# Blender v2.92.0 OBJ File: ''
# www.blender.org
mtllib cornellbox-box.mtl
g cornellbox
v -1.000000 2.000000 -1.000000
v 1.000000 2.000000 -1.000000
v 1.000000 2.000000 1.000000
v -1.000000 2.000000 1.000000
v 1.000000 -0.000000 1.000000
v 1.000000 0.000000 -1.000000
v -1.000000 0.000000 -1.000000
v -1.000000 -0.000000 1.000000
v 1.000000 0.000000 -1.000000
v 1.000000 2.000000 -1.000000
v -1.000000 2.000000 -1.000000
v -1.000000 0.000000 -1.000000
v -1.000000 0.000000 -1.000000
v -1.000000 2.000000 -1.000000
v -1.000000 2.000000 1.000000
v -1.000000 -0.000000 1.000000
v -0.240000 1.999000 -0.220000
v 0.230000 1.999000 -0.220000
v 0.230000 1.999000 0.220000
v -0.240000 1.999000 0.220000
v 1.000000 -0.000000 1.000000
v 1.000000 2.000000 1.000000
v 1.000000 2.000000 -1.000000
v 1.000000 0.000000 -1.000000
vt 0.329370 0.338090
vt 0.653190 0.338090
vt 0.653190 0.661910
vt 0.329370 0.661910
vt 0.981330 0.338090
vt 0.981330 0.661910
vt 0.657510 0.661910
vt 0.657510 0.338090
vt 0.653190 0.666230
vt 0.653190 0.990050
vt 0.329370 0.990050
vt 0.329370 0.666230
vt 0.981330 0.009950
vt 0.981330 0.333770
vt 0.657510 0.333770
vt 0.657510 0.009950
vt 0.657510 0.666230
vt 0.733610 0.666230
vt 0.733610 0.727760
vt 0.657510 0.727760
vt 0.653190 0.009950
vt 0.653190 0.333770
vt 0.329370 0.333770
vt 0.329370 0.009950
vn 0.0000 -1.0000 -0.0000
vn 0.0000 1.0000 0.0000
vn 0.0000 -0.0000 1.0000
vn 1.0000 -0.0000 0.0000
vn -1.0000 0.0000 0.0000
g cornellbox_cornellbox_ceiling
usemtl ceiling
s 1
f 1/1/1 2/2/1 3/3/1
f 3/3/1 4/4/1 1/1/1
g cornellbox_cornellbox_floor
usemtl floor
f 5/5/2 6/6/2 7/7/2
f 7/7/2 8/8/2 5/5/2
g cornellbox_cornellbox_frontWall
usemtl frontWall
f 9/9/3 10/10/3 11/11/3
f 11/11/3 12/12/3 9/9/3
g cornellbox_cornellbox_leftWall
usemtl leftWall
f 13/13/4 14/14/4 15/15/4
f 15/15/4 16/16/4 13/13/4
g cornellbox_cornellbox_light
usemtl light
f 17/17/1 18/18/1 19/19/1
f 19/19/1 20/20/1 17/17/1
g cornellbox_cornellbox_rightWall
usemtl rightWall
f 21/21/5 22/22/5 23/23/5
f 23/23/5 24/24/5 21/21/5
g Cube_Cube.001
v -0.301777 0.426777 0.301777
v 0.125000 0.676777 0.375000
v -0.375000 0.676777 -0.125000
v 0.051777 0.926777 -0.051777
v -0.051777 0.073223 0.051777
v 0.375000 0.323223 0.125000
v -0.125000 0.323223 -0.375000
v 0.301777 0.573223 -0.301777
vt 0.375000 0.000000
vt 0.625000 0.000000
vt 0.625000 0.250000
vt 0.375000 0.250000
vt 0.625000 0.500000
vt 0.375000 0.500000
vt 0.625000 0.750000
vt 0.375000 0.750000
vt 0.625000 1.000000
vt 0.375000 1.000000
vt 0.125000 0.500000
vt 0.125000 0.750000
vt 0.875000 0.500000
vt 0.875000 0.750000
vn -0.5000 0.7071 0.5000
vn -0.1464 0.5000 -0.8536
vn 0.5000 -0.7071 -0.5000
vn 0.1464 -0.5000 0.8536
vn -0.8536 -0.5000 -0.1464
vn 0.8536 0.5000 0.1464
g Cube_Cube.001_box
usemtl box
s off
f 25/25/6 26/26/6 28/27/6 27/28/6
f 27/28/7 28/27/7 32/29/7 31/30/7
f 31/30/8 32/29/8 30/31/8 29/32/8
f 29/32/9 30/31/9 26/33/9 25/34/9
f 27/35/10 31/30/10 29/32/10 25/36/10
f 32/29/11 28/37/11 26/38/11 30/31/11
